<?xml version="1.0" encoding="utf-8"?>
<!-- Generator: Adobe Illustrator 17.0.0, SVG Export Plug-In . SVG Version: 6.00 Build 0)  -->
<!DOCTYPE svg PUBLIC "-//W3C//DTD SVG 1.1//EN" "http://www.w3.org/Graphics/SVG/1.1/DTD/svg11.dtd">
<svg version="1.1" id="Layer_1" xmlns="http://www.w3.org/2000/svg" xmlns:xlink="http://www.w3.org/1999/xlink" x="0px" y="0px"
	 width="100px" height="100px" viewBox="0 0 100 100" enable-background="new 0 0 100 100" xml:space="preserve">
<g>
	<path d="M62.726,40.852l-6.449,3.897c-2.284,1.343-4.703,2.553-6.988,3.628c-0.672,0.269-1.478,0.672-2.284,1.076
		c-2.822,1.478-4.299,4.568-3.628,7.659c0.537,2.419,2.553,4.434,4.972,4.972c0.538,0.134,1.075,0.134,1.612,0.134
		c2.553,0,4.837-1.478,6.047-3.762c0.269-0.672,0.672-1.479,1.075-2.284c1.21-2.284,2.284-4.703,3.628-6.988l3.897-6.45
		c0.269-0.537,0.135-1.075-0.269-1.612C63.935,40.583,63.263,40.583,62.726,40.852L62.726,40.852z M58.426,47.705
		c-1.479,2.418-2.687,4.837-3.762,7.256c-0.269,0.806-0.672,1.478-1.076,2.284c-0.806,1.747-2.687,2.553-4.568,2.15
		c-1.478-0.269-2.688-1.479-2.956-2.956c-0.403-1.882,0.403-3.762,2.15-4.569c0.672-0.403,1.478-0.672,2.284-1.075
		c2.419-1.209,4.972-2.419,7.256-3.762l1.747-1.075L58.426,47.705z M58.426,47.705"/>
	<path d="M87.394,40.582c-0.017-0.091-0.043-0.181-0.078-0.268c-0.035-0.088-0.08-0.168-0.132-0.241
		c-2.013-4.822-4.939-9.175-8.558-12.844c-0.051-0.076-0.111-0.148-0.179-0.217c-0.068-0.069-0.141-0.128-0.217-0.179
		c-7.29-7.191-17.285-11.646-28.27-11.646c-5.262,0-10.297,1.023-14.916,2.879c-0.091,0.017-0.181,0.042-0.268,0.078
		c-0.088,0.035-0.168,0.079-0.242,0.131c-4.821,2.014-9.175,4.939-12.844,8.558c-0.075,0.052-0.148,0.111-0.217,0.179
		c-0.068,0.068-0.128,0.141-0.178,0.217c-7.191,7.291-11.646,17.284-11.646,28.27c0,9.137,2.956,17.871,8.735,24.993
		c0.268,0.403,0.672,0.538,1.075,0.538h61.005c0.403,0,0.806-0.135,1.075-0.538c5.778-7.122,8.735-15.856,8.735-24.993
		C90.273,50.236,89.248,45.201,87.394,40.582L87.394,40.582z M79.926,78.341H20.13c-1.817-2.343-3.325-4.856-4.518-7.497
		l3.712-1.506c0.672-0.268,0.94-1.075,0.672-1.746c-0.269-0.672-1.075-0.941-1.747-0.672l-3.639,1.475
		c-1.35-3.675-2.109-7.561-2.248-11.553h9.381c0.806,0,1.343-0.538,1.343-1.343c0-0.807-0.538-1.344-1.343-1.344h-9.38
		c0.151-4.237,1.01-8.301,2.464-12.077l3.69,1.596c0.134,0.134,0.404,0.134,0.537,0.134c0.538,0,0.941-0.268,1.21-0.806
		c0.269-0.672,0-1.478-0.672-1.747l-3.728-1.612c1.685-3.595,3.922-6.885,6.602-9.757l2.77,2.769
		c0.269,0.269,0.537,0.403,0.941,0.403c0.403,0,0.671-0.134,0.94-0.403c0.538-0.538,0.538-1.344,0-1.882l-2.77-2.769
		c3.011-2.807,6.477-5.131,10.274-6.84l1.499,3.698c0.135,0.538,0.672,0.806,1.21,0.806c0.134,0,0.269,0,0.537-0.134
		c0.672-0.269,0.94-1.075,0.672-1.747l-1.469-3.624c3.625-1.332,7.508-2.118,11.547-2.262v9.38c0,0.806,0.537,1.343,1.344,1.343
		c0.806,0,1.343-0.537,1.343-1.343v-9.38c4.237,0.151,8.301,1.01,12.077,2.464l-1.595,3.69c-0.269,0.672,0,1.478,0.672,1.747
		c0.134,0.134,0.403,0.134,0.538,0.134c0.537,0,1.075-0.403,1.209-0.807l1.612-3.727c3.595,1.685,6.885,3.922,9.758,6.602
		l-2.77,2.769c-0.538,0.538-0.538,1.344,0,1.882c0.269,0.269,0.537,0.403,0.941,0.403c0.268,0,0.671-0.134,0.94-0.403l2.769-2.769
		c2.807,3.01,5.131,6.476,6.84,10.274l-3.698,1.499c-0.672,0.269-0.94,1.076-0.672,1.747c0.135,0.538,0.672,0.807,1.21,0.807
		c0.134,0,0.269-0.135,0.537-0.135l3.624-1.469c1.333,3.625,2.118,7.507,2.262,11.547h-9.379c-0.807,0-1.344,0.537-1.344,1.344
		c0,0.806,0.537,1.343,1.344,1.343h9.381c-0.146,4.188-0.972,8.259-2.428,12.094l-3.728-1.612c-0.672-0.269-1.478,0-1.747,0.672
		c-0.268,0.672,0,1.478,0.672,1.747l3.777,1.632C82.973,73.822,81.576,76.156,79.926,78.341L79.926,78.341z M79.926,78.341"/>
</g>
</svg>
