<?xml version="1.0" encoding="utf-8"?>
<!-- Generator: Adobe Illustrator 17.0.0, SVG Export Plug-In . SVG Version: 6.00 Build 0)  -->
<!DOCTYPE svg PUBLIC "-//W3C//DTD SVG 1.1//EN" "http://www.w3.org/Graphics/SVG/1.1/DTD/svg11.dtd">
<svg version="1.1" id="Layer_1" xmlns="http://www.w3.org/2000/svg" xmlns:xlink="http://www.w3.org/1999/xlink" x="0px" y="0px"
	 width="100px" height="100px" viewBox="0 0 100 100" enable-background="new 0 0 100 100" xml:space="preserve">
<g>
	<rect x="25.442" y="45.224" width="37.625" height="3.135"/>
	<path d="M25.442,54.63v3.134h30.514l3.136-3.134H25.442z M25.442,54.63"/>
	<path d="M25.442,64.036v3.136H46.55l3.136-3.136H25.442z M25.442,64.036"/>
	<g>
		<defs>
			<rect id="SVGID_1_" x="12.684" y="7.539" width="78.602" height="84.951"/>
		</defs>
		<clipPath id="SVGID_2_">
			<use xlink:href="#SVGID_1_"  overflow="visible"/>
		</clipPath>
		<rect x="25.442" y="73.443" clip-path="url(#SVGID_2_)" width="15.677" height="3.136"/>
		<path clip-path="url(#SVGID_2_)" d="M90.328,41.13l-4.434-4.434c-1.224-1.224-3.21-1.224-4.434-0.001
			c-11.316,11.317-22.663,22.663-34.069,34.07v8.948c7.548,0,5.639,0.004,8.801-0.013c1.637-1.636,8.86-8.859,16.282-16.281v22.567
			c0,1.731-1.404,3.134-3.136,3.134H19.171c-1.731,0-3.134-1.404-3.134-3.134V29.546c0-1.732,1.404-3.136,3.134-3.136h6.272v6.271
			h37.625v-6.27l6.27-0.001c1.732,0,3.136,1.404,3.136,3.136v11.646l3.136-3.157v-8.488c0-3.463-2.807-6.27-6.271-6.27h-6.812
			c-1.008-2.847-3.339-5.066-6.261-5.906c-1.443-0.415-2.554-1.526-2.969-2.97c-1.13-3.928-4.75-6.801-9.041-6.801
			c-4.292,0-7.911,2.873-9.041,6.801c-0.415,1.445-1.529,2.555-2.975,2.971c-2.919,0.842-5.253,3.059-6.259,5.905h-6.809
			c-3.463,0-6.27,2.807-6.27,6.27v56.439c0,3.463,2.807,6.27,6.27,6.27h50.167c3.464,0,6.271-2.807,6.271-6.27V60.282
			c6.741-6.74,13.019-13.019,14.718-14.718C91.552,44.34,91.552,42.353,90.328,41.13L90.328,41.13z M28.578,26.36
			c0.022-2.757,1.884-5.214,4.529-5.976c2.491-0.718,4.405-2.63,5.12-5.117c0.768-2.67,3.247-4.533,6.028-4.533
			c2.781,0,5.26,1.863,6.027,4.533c0.716,2.488,2.629,4.401,5.116,5.116c2.669,0.768,4.533,3.247,4.533,6.028v3.135H28.578V26.36z
			 M54.886,76.571c-0.813,0.005-1.146,0.007-2.271,0.007l-2.09-2.089v-2.426l2.113-2.112l4.434,4.434L54.886,76.571z M59.289,72.168
			l-4.434-4.434l19.953-19.953l4.434,4.434L59.289,72.168z M81.46,49.998l-4.434-4.434l2.217-2.218l4.434,4.434L81.46,49.998z
			 M85.894,45.564L81.46,41.13l2.217-2.217l4.434,4.434L85.894,45.564z M85.894,45.564"/>
	</g>
	<path d="M46.653,17.004c0,1.299-1.053,2.352-2.351,2.352c-1.299,0-2.352-1.053-2.352-2.352c0-1.299,1.053-2.351,2.352-2.351
		C45.601,14.653,46.653,15.706,46.653,17.004L46.653,17.004z M46.653,17.004"/>
</g>
</svg>
