<?xml version="1.0" encoding="utf-8"?>
<!-- Generator: Adobe Illustrator 17.0.0, SVG Export Plug-In . SVG Version: 6.00 Build 0)  -->
<!DOCTYPE svg PUBLIC "-//W3C//DTD SVG 1.1//EN" "http://www.w3.org/Graphics/SVG/1.1/DTD/svg11.dtd">
<svg version="1.1" id="Layer_1" xmlns="http://www.w3.org/2000/svg" xmlns:xlink="http://www.w3.org/1999/xlink" x="0px" y="0px"
	 width="100px" height="100px" viewBox="0 0 100 100" enable-background="new 0 0 100 100" xml:space="preserve">
<g>
	<path d="M85.597,29.064L64.15,7.617c-0.339-0.34-0.799-0.53-1.28-0.53H21.8c-4.851,0-8.797,3.947-8.797,8.798v71.101
		c0,4.851,3.946,8.798,8.797,8.798h55.53c4.851,0,8.797-3.947,8.797-8.798V30.344C86.127,29.864,85.937,29.403,85.597,29.064
		L85.597,29.064z M64.681,13.267l15.266,15.266H69.858c-1.383,0-2.683-0.538-3.661-1.516c-0.978-0.978-1.516-2.278-1.516-3.661
		V13.267z M82.507,86.986c0,2.855-2.322,5.178-5.177,5.178H21.8c-2.855,0-5.178-2.323-5.178-5.178V15.884
		c0-2.855,2.323-5.178,5.178-5.178h39.261v12.65c-0.001,2.35,0.914,4.559,2.576,6.22c1.662,1.661,3.872,2.577,6.222,2.577h12.649
		V86.986z M82.507,86.986"/>
	<path d="M30.819,59.706h-0.81c-1,0-1.81,0.81-1.81,1.81c0,1,0.81,1.81,1.81,1.81h0.81c1,0,1.81-0.81,1.81-1.81
		C32.629,60.516,31.819,59.706,30.819,59.706L30.819,59.706z M30.819,59.706"/>
	<path d="M69.121,59.706H36.675c-0.999,0-1.81,0.81-1.81,1.81c0,1,0.811,1.81,1.81,1.81h32.446c1,0,1.81-0.81,1.81-1.81
		C70.931,60.516,70.121,59.706,69.121,59.706L69.121,59.706z M69.121,59.706"/>
	<path d="M30.819,51.435h-0.81c-1,0-1.81,0.81-1.81,1.81c0,1,0.81,1.81,1.81,1.81h0.81c1,0,1.81-0.81,1.81-1.81
		C32.629,52.245,31.819,51.435,30.819,51.435L30.819,51.435z M30.819,51.435"/>
	<path d="M69.121,51.435H36.675c-0.999,0-1.81,0.81-1.81,1.81c0,1,0.811,1.81,1.81,1.81h32.446c1,0,1.81-0.81,1.81-1.81
		C70.931,52.245,70.121,51.435,69.121,51.435L69.121,51.435z M69.121,51.435"/>
	<path d="M30.819,43.164h-0.81c-1,0-1.81,0.81-1.81,1.81c0,0.999,0.81,1.81,1.81,1.81h0.81c1,0,1.81-0.811,1.81-1.81
		C32.629,43.974,31.819,43.164,30.819,43.164L30.819,43.164z M30.819,43.164"/>
	<path d="M69.121,43.164H36.675c-0.999,0-1.81,0.81-1.81,1.81c0,0.999,0.811,1.81,1.81,1.81h32.446c1,0,1.81-0.811,1.81-1.81
		C70.931,43.974,70.121,43.164,69.121,43.164L69.121,43.164z M69.121,43.164"/>
</g>
</svg>
