<?xml version="1.0" encoding="utf-8"?>
<!-- Generator: Adobe Illustrator 17.0.0, SVG Export Plug-In . SVG Version: 6.00 Build 0)  -->
<!DOCTYPE svg PUBLIC "-//W3C//DTD SVG 1.1//EN" "http://www.w3.org/Graphics/SVG/1.1/DTD/svg11.dtd">
<svg version="1.1" id="Layer_1" xmlns="http://www.w3.org/2000/svg" xmlns:xlink="http://www.w3.org/1999/xlink" x="0px" y="0px"
	 width="100px" height="100px" viewBox="0 0 100 100" enable-background="new 0 0 100 100" xml:space="preserve">
<g>
	<path fill="#808080" d="M91.023,46.197L49.719,7.845L8.421,46.197c-0.583,0.54-0.617,1.455-0.077,2.038
		c0.542,0.585,1.456,0.612,2.04,0.072l4.776-4.437v48.026h69.128V43.87l4.774,4.437c0.281,0.259,0.634,0.385,0.985,0.385
		c0.387,0,0.774-0.155,1.055-0.457C91.642,47.652,91.606,46.737,91.023,46.197L91.023,46.197z M41.084,89.02V65.977
		c0-4.767,3.874-8.642,8.635-8.642c4.767,0,8.642,3.876,8.642,8.642V89.02H41.084z M81.403,89.02h-20.16V65.977
		c0-6.356-5.168-11.524-11.524-11.524c-6.351,0-11.519,5.168-11.519,11.524V89.02H18.04V41.196l31.679-29.419l31.684,29.419V89.02z"
		/>
</g>
</svg>
