<?xml version="1.0" encoding="utf-8"?>
<!-- Generator: Adobe Illustrator 17.0.0, SVG Export Plug-In . SVG Version: 6.00 Build 0)  -->
<!DOCTYPE svg PUBLIC "-//W3C//DTD SVG 1.1//EN" "http://www.w3.org/Graphics/SVG/1.1/DTD/svg11.dtd">
<svg version="1.1" id="Layer_1" xmlns="http://www.w3.org/2000/svg" xmlns:xlink="http://www.w3.org/1999/xlink" x="0px" y="0px"
	 width="100px" height="100px" viewBox="0 0 100 100" enable-background="new 0 0 100 100" xml:space="preserve">
<g>
	<path d="M74.477,64.465c-0.316,0-0.629-0.113-0.884-0.352L58.747,50.187c-0.516-0.494-0.542-1.3-0.065-1.829
		c0.494-0.516,1.313-0.542,1.83-0.048l14.859,13.926c0.516,0.49,0.542,1.31,0.052,1.826C75.171,64.33,74.829,64.465,74.477,64.465
		L74.477,64.465z M74.477,64.465"/>
	<path d="M24.906,64.465c-0.355,0-0.694-0.135-0.945-0.403c-0.494-0.516-0.468-1.336,0.048-1.826l14.862-13.926
		c0.529-0.494,1.349-0.468,1.826,0.048c0.494,0.529,0.468,1.336-0.048,1.829L25.787,64.113
		C25.535,64.352,25.219,64.465,24.906,64.465L24.906,64.465z M24.906,64.465"/>
	<path d="M83.264,77.423H16.12c-3.556,0-6.453-2.885-6.453-6.453V26.968c0-3.553,2.898-6.453,6.453-6.453h67.144
		c3.553,0,6.453,2.901,6.453,6.453V70.97C89.717,74.539,86.816,77.423,83.264,77.423L83.264,77.423z M16.12,23.099
		c-2.13,0-3.869,1.739-3.869,3.869V70.97c0,2.143,1.739,3.869,3.869,3.869h67.144c2.143,0,3.869-1.726,3.869-3.869V26.968
		c0-2.13-1.726-3.869-3.869-3.869H16.12z M16.12,23.099"/>
	<path d="M49.697,55.456c-1.726,0-3.44-0.568-4.737-1.704L11.809,24.838c-0.542-0.465-0.594-1.284-0.126-1.826
		c0.468-0.542,1.284-0.581,1.826-0.126L46.647,51.8c1.652,1.436,4.437,1.436,6.089,0l33.096-28.866
		c0.542-0.465,1.349-0.416,1.83,0.126c0.465,0.542,0.416,1.349-0.126,1.817L54.437,53.74C53.127,54.888,51.413,55.456,49.697,55.456
		L49.697,55.456z M49.697,55.456"/>
</g>
</svg>
