<?xml version="1.0" encoding="utf-8"?>
<!-- Generator: Adobe Illustrator 17.0.0, SVG Export Plug-In . SVG Version: 6.00 Build 0)  -->
<!DOCTYPE svg PUBLIC "-//W3C//DTD SVG 1.1//EN" "http://www.w3.org/Graphics/SVG/1.1/DTD/svg11.dtd">
<svg version="1.1" id="Layer_1" xmlns="http://www.w3.org/2000/svg" xmlns:xlink="http://www.w3.org/1999/xlink" x="0px" y="0px"
	 width="100px" height="100px" viewBox="0 0 100 100" enable-background="new 0 0 100 100" xml:space="preserve">
<g>
	<path d="M48.993,90.252c-22.447,0-40.715-18.265-40.715-40.715c0-22.447,18.268-40.715,40.715-40.715
		c22.45,0,40.715,18.268,40.715,40.715C89.708,71.987,71.444,90.252,48.993,90.252L48.993,90.252z M48.993,11.293
		c-21.087,0-38.244,17.157-38.244,38.244c0,21.099,17.157,38.26,38.244,38.26c21.099,0,38.26-17.16,38.26-38.26
		C87.253,28.45,70.093,11.293,48.993,11.293L48.993,11.293z M48.993,11.293"/>
	<path d="M48.993,90.252c-8.471,0-16.617-2.6-23.558-7.542c-0.373-0.265-0.577-0.722-0.515-1.169
		c0.059-0.457,0.373-0.842,0.793-0.999c10.232-3.785,11.882-6.857,11.882-12.749c0-1.567-0.348-2.073-0.975-2.998
		c-0.845-1.218-1.99-2.893-2.785-7.255c-0.12-0.626-0.228-0.676-0.784-0.941c-1.493-0.722-2.866-1.758-3.23-6.493
		c0-2.289,0.784-3.557,1.447-4.204c-0.145-0.821-0.386-2.23-0.602-3.76c-1.12-6.845-1.169-15.245,8.471-19.147
		c8.4-3.399,15.109-1.542,17.219,0.676c1.481,0.046,5.324,0.444,8.002,3.554c4.121,4.784,2.807,15.701,2.36,18.653
		c0.651,0.651,1.447,1.903,1.447,4.143c-0.349,4.821-1.724,5.858-3.23,6.58c-0.552,0.265-0.663,0.315-0.784,0.941
		c-0.796,4.362-1.94,6.037-2.782,7.255c-0.626,0.925-0.975,1.431-0.975,2.998c0,5.892,1.65,8.964,11.879,12.749
		c0.435,0.157,0.734,0.543,0.796,0.999c0.059,0.46-0.133,0.904-0.506,1.169C65.623,87.652,57.476,90.252,48.993,90.252
		L48.993,90.252z M28.797,82.001c6.086,3.794,13.014,5.796,20.196,5.796c7.181,0,14.122-2.002,20.196-5.796
		c-8.566-3.532-11.265-7.073-11.265-14.208c0-2.326,0.685-3.325,1.422-4.386c0.747-1.095,1.675-2.458,2.384-6.314
		c0.349-1.854,1.422-2.372,2.144-2.721c0.762-0.364,1.555-0.75,1.832-4.448c0-1.891-0.854-2.397-0.879-2.422
		c-0.457-0.253-0.746-0.808-0.651-1.326c0.602-3.276,1.616-13.508-1.687-17.351c-2.252-2.613-5.808-2.687-6.481-2.662
		c-0.108-0.012-0.219-0.012-0.327-0.037c-0.324-0.083-0.867-0.361-1.037-0.651c-0.663-1.144-6.506-3.458-14.578-0.191
		c-7.977,3.23-7.989,10.146-6.953,16.485c0.336,2.36,0.71,4.408,0.71,4.408c0.096,0.568-0.179,1.111-0.697,1.351
		c0.012,0-0.833,0.518-0.833,2.483c0.278,3.612,1.061,3.989,1.832,4.362c0.71,0.336,1.795,0.854,2.132,2.721
		c0.713,3.847,1.65,5.207,2.4,6.302c0.734,1.061,1.41,2.073,1.41,4.386C40.066,74.927,37.379,78.481,28.797,82.001L28.797,82.001z
		 M28.797,82.001"/>
</g>
</svg>
