<?xml version="1.0" encoding="utf-8"?>
<!-- Generator: Adobe Illustrator 17.0.0, SVG Export Plug-In . SVG Version: 6.00 Build 0)  -->
<!DOCTYPE svg PUBLIC "-//W3C//DTD SVG 1.1//EN" "http://www.w3.org/Graphics/SVG/1.1/DTD/svg11.dtd">
<svg version="1.1" id="Layer_1" xmlns="http://www.w3.org/2000/svg" xmlns:xlink="http://www.w3.org/1999/xlink" x="0px" y="0px"
	 width="100px" height="100px" viewBox="0 0 100 100" enable-background="new 0 0 100 100" xml:space="preserve">
<g>
	<g>
		<defs>
			<rect id="SVGID_1_" x="8.483" y="7.911" width="83.19" height="84.969"/>
		</defs>
		<clipPath id="SVGID_2_">
			<use xlink:href="#SVGID_1_"  overflow="visible"/>
		</clipPath>
		<path clip-path="url(#SVGID_2_)" d="M90.23,56.385L86,52.157c-1.722-1.724-4.532-1.724-6.263,0L56.923,74.978L53.774,86.52
			l-0.767,0.767c-0.58,0.573-0.58,1.505-0.007,2.085l-0.007,0.03l0.028-0.007c0.284,0.282,0.66,0.426,1.036,0.426
			c0.376,0,0.76-0.145,1.049-0.434l0.767-0.775l11.535-3.142L90.23,62.648C91.952,60.917,91.952,58.108,90.23,56.385L90.23,56.385z
			 M60.341,75.753l15.19-15.19l6.291,6.293l-15.19,15.19L60.341,75.753z M59.008,78.606l4.771,4.78l-6.567,1.787L59.008,78.606z
			 M88.13,60.548l-4.208,4.215l-6.291-6.293l4.206-4.213c0.573-0.573,1.5-0.565,2.071,0l4.222,4.228
			C88.701,59.05,88.701,59.977,88.13,60.548L88.13,60.548z M88.13,60.548"/>
	</g>
	<path d="M48.524,27.14c-0.819,0-1.485,0.658-1.485,1.485c0,0.817,0.665,1.475,1.485,1.475h26.688c0.817,0,1.485-0.658,1.485-1.475
		c0-0.827-0.667-1.485-1.485-1.485H48.524z M48.524,27.14"/>
	<path d="M76.697,49.384c0-0.827-0.667-1.485-1.485-1.485H48.524c-0.819,0-1.485,0.658-1.485,1.485c0,0.817,0.665,1.485,1.485,1.485
		h26.688C76.03,50.868,76.697,50.201,76.697,49.384L76.697,49.384z M76.697,49.384"/>
	<path d="M39.002,20.08c-0.623-0.536-1.557-0.463-2.093,0.159l-9.268,10.81l-5.663-4.25c-0.658-0.491-1.585-0.361-2.078,0.297
		c-0.491,0.653-0.361,1.587,0.297,2.072l6.779,5.09c0.267,0.195,0.578,0.297,0.89,0.297c0.421,0,0.832-0.182,1.129-0.521
		l10.167-11.869C39.69,21.55,39.625,20.616,39.002,20.08L39.002,20.08z M39.002,20.08"/>
	<path d="M39.002,40.838c-0.623-0.528-1.557-0.463-2.093,0.159l-9.268,10.81l-5.663-4.25c-0.658-0.491-1.585-0.354-2.078,0.298
		c-0.491,0.651-0.361,1.585,0.297,2.078l6.779,5.083c0.267,0.195,0.578,0.297,0.89,0.297c0.421,0,0.832-0.182,1.129-0.521
		l10.167-11.861C39.69,42.308,39.625,41.374,39.002,40.838L39.002,40.838z M39.002,40.838"/>
	<path d="M36.909,63.241l-9.268,10.81l-5.663-4.25c-0.658-0.491-1.585-0.361-2.078,0.298c-0.491,0.651-0.361,1.585,0.297,2.07
		l6.779,5.09c0.267,0.195,0.578,0.297,0.89,0.297c0.421,0,0.832-0.182,1.129-0.521l10.167-11.861
		c0.528-0.623,0.463-1.557-0.159-2.093C38.379,62.553,37.445,62.618,36.909,63.241L36.909,63.241z M36.909,63.241"/>
	<path d="M45.555,86.456H26.54c-8.319,0-15.088-6.771-15.088-15.09V27.4c0-8.326,6.769-15.088,15.088-15.088h43.965
		c8.319,0,15.09,6.762,15.09,15.088v17.53c0,0.819,0.658,1.485,1.475,1.485c0.819,0,1.485-0.665,1.485-1.485V27.4
		c0-9.956-8.095-18.058-18.05-18.058H26.54c-9.956,0-18.058,8.102-18.058,18.058v43.965c0,9.956,8.102,18.05,18.058,18.05h19.014
		c0.817,0,1.485-0.658,1.485-1.483C47.039,87.114,46.372,86.456,45.555,86.456L45.555,86.456z M45.555,86.456"/>
</g>
</svg>
