<?xml version="1.0" encoding="utf-8"?>
<!-- Generator: Adobe Illustrator 17.0.0, SVG Export Plug-In . SVG Version: 6.00 Build 0)  -->
<!DOCTYPE svg PUBLIC "-//W3C//DTD SVG 1.1//EN" "http://www.w3.org/Graphics/SVG/1.1/DTD/svg11.dtd">
<svg version="1.1" id="Layer_1" xmlns="http://www.w3.org/2000/svg" xmlns:xlink="http://www.w3.org/1999/xlink" x="0px" y="0px"
	 width="100px" height="100px" viewBox="0 0 100 100" enable-background="new 0 0 100 100" xml:space="preserve">
<g>
	<g>
		<defs>
			<rect id="SVGID_1_" x="12.971" y="5.017" width="74.024" height="88.974"/>
		</defs>
		<clipPath id="SVGID_2_">
			<use xlink:href="#SVGID_1_"  overflow="visible"/>
		</clipPath>
		<path clip-path="url(#SVGID_2_)" d="M86.651,79.899l-6.349-10.577c-2.927-4.882-4.476-10.47-4.476-16.165v-9.266
			c0-14.261-11.608-25.87-25.87-25.87c-14.262,0-25.87,11.608-25.87,25.87v9.266c0,5.694-1.548,11.282-4.476,16.165l-6.349,10.577
			c-0.343,0.569-0.351,1.282-0.025,1.859c0.329,0.58,0.946,0.939,1.611,0.939h70.218c0.665,0,1.282-0.359,1.611-0.939
			C87.002,81.181,86.995,80.468,86.651,79.899L86.651,79.899z M18.111,79l4.668-7.78c3.274-5.454,5.003-11.7,5.003-18.064v-9.266
			c0-12.229,9.946-22.174,22.175-22.174c12.229,0,22.174,9.945,22.174,22.174v9.266c0,6.364,1.73,12.61,5.001,18.064L81.802,79
			H18.111z M18.111,79"/>
	</g>
	<path d="M49.957,5.087c-4.076,0-7.391,3.315-7.391,7.391v7.391c0,1.02,0.827,1.848,1.847,1.848c1.02,0,1.848-0.828,1.848-1.848
		v-7.391c0-2.04,1.655-3.696,3.696-3.696s3.696,1.655,3.696,3.696v7.391c0,1.02,0.828,1.848,1.847,1.848
		c1.02,0,1.848-0.828,1.848-1.848v-7.391C57.348,8.402,54.033,5.087,49.957,5.087L49.957,5.087z M49.957,5.087"/>
	<path d="M57.954,79.913c-0.521-0.879-1.648-1.167-2.531-0.662c-0.884,0.518-1.179,1.652-0.662,2.532
		c0.48,0.817,0.743,1.796,0.743,2.761c0,3.056-2.488,5.543-5.544,5.543c-3.056,0-5.543-2.487-5.543-5.543
		c0-0.965,0.262-1.944,0.743-2.761c0.514-0.883,0.218-2.014-0.661-2.532c-0.891-0.506-2.015-0.217-2.532,0.662
		c-0.817,1.397-1.249,2.998-1.249,4.631c0,5.096,4.143,9.24,9.24,9.24s9.239-4.143,9.246-9.24
		C59.203,82.911,58.771,81.31,57.954,79.913L57.954,79.913z M57.954,79.913"/>
</g>
</svg>
