<?xml version="1.0" encoding="utf-8"?>
<!-- Generator: Adobe Illustrator 17.0.0, SVG Export Plug-In . SVG Version: 6.00 Build 0)  -->
<!DOCTYPE svg PUBLIC "-//W3C//DTD SVG 1.1//EN" "http://www.w3.org/Graphics/SVG/1.1/DTD/svg11.dtd">
<svg version="1.1" id="Layer_1" xmlns="http://www.w3.org/2000/svg" xmlns:xlink="http://www.w3.org/1999/xlink" x="0px" y="0px"
	 width="100px" height="100px" viewBox="0 0 100 100" enable-background="new 0 0 100 100" xml:space="preserve">
<g>
	<g>
		<defs>
			<rect id="SVGID_1_" x="11.167" y="9.076" width="77.427" height="83.348"/>
		</defs>
		<clipPath id="SVGID_2_">
			<use xlink:href="#SVGID_1_"  overflow="visible"/>
		</clipPath>
		<path clip-path="url(#SVGID_2_)" d="M88.173,88.035L65.614,64.571c5.754-5.775,9.32-13.728,9.32-22.498
			c0-17.584-14.309-31.884-31.884-31.884c-17.584,0-31.884,14.299-31.884,31.884c0,17.577,14.299,31.884,31.884,31.884
			c7.716,0,14.797-2.765,20.319-7.339l22.609,23.52c0.296,0.311,0.696,0.459,1.097,0.459c0.378,0,0.755-0.14,1.053-0.421
			C88.729,89.598,88.751,88.634,88.173,88.035L88.173,88.035z M43.05,70.917c-15.909,0-28.844-12.942-28.844-28.844
			c0-15.909,12.935-28.844,28.844-28.844c15.901,0,28.844,12.935,28.844,28.844C71.894,57.975,58.951,70.917,43.05,70.917
			L43.05,70.917z M43.05,70.917"/>
	</g>
</g>
</svg>
