<?xml version="1.0" encoding="utf-8"?>
<!-- Generator: Adobe Illustrator 17.0.0, SVG Export Plug-In . SVG Version: 6.00 Build 0)  -->
<!DOCTYPE svg PUBLIC "-//W3C//DTD SVG 1.1//EN" "http://www.w3.org/Graphics/SVG/1.1/DTD/svg11.dtd">
<svg version="1.1" id="Layer_1" xmlns="http://www.w3.org/2000/svg" xmlns:xlink="http://www.w3.org/1999/xlink" x="0px" y="0px"
	 width="100px" height="100px" viewBox="0 0 100 100" enable-background="new 0 0 100 100" xml:space="preserve">
<g>
	<path d="M91.865,48.954c0-23.419-19.06-42.479-42.479-42.479S6.907,25.535,6.907,48.954c0,12.369,5.318,23.526,13.788,31.293
		l-0.039,0.039l1.373,1.16c0.091,0.075,0.189,0.135,0.28,0.212c0.73,0.602,1.493,1.176,2.261,1.734
		c0.249,0.181,0.498,0.361,0.755,0.543c0.83,0.566,1.674,1.108,2.541,1.614c0.189,0.114,0.378,0.218,0.566,0.332
		c0.944,0.535,1.917,1.048,2.904,1.508c0.075,0.039,0.145,0.068,0.22,0.106c3.228,1.493,6.675,2.595,10.272,3.252
		c0.099,0.014,0.189,0.029,0.286,0.044c1.116,0.197,2.248,0.348,3.394,0.452c0.135,0.015,0.28,0.023,0.415,0.039
		c1.139,0.091,2.294,0.151,3.462,0.151c1.155,0,2.3-0.06,3.431-0.151c0.145-0.015,0.288-0.023,0.431-0.031
		c1.139-0.104,2.255-0.257,3.364-0.444c0.099-0.015,0.197-0.039,0.295-0.054c3.543-0.633,6.938-1.711,10.122-3.174
		c0.12-0.052,0.241-0.106,0.353-0.158c0.958-0.452,1.886-0.935,2.8-1.448c0.226-0.129,0.452-0.257,0.678-0.392
		c0.83-0.49,1.653-0.996,2.445-1.547c0.286-0.189,0.566-0.4,0.844-0.604c0.68-0.483,1.35-0.987,1.991-1.516
		c0.145-0.112,0.303-0.218,0.446-0.332l1.41-1.184l-0.044-0.037C86.495,72.592,91.865,61.391,91.865,48.954L91.865,48.954z
		 M10,48.954C10,27.232,27.664,9.569,49.386,9.569s39.386,17.663,39.386,39.386c0,11.705-5.136,22.228-13.267,29.446
		c-0.452-0.309-0.904-0.597-1.38-0.83l-13.078-6.538c-1.168-0.589-1.9-1.765-1.9-3.078v-4.57c0.301-0.371,0.626-0.794,0.95-1.261
		c1.697-2.39,3.055-5.053,4.043-7.911c1.96-0.929,3.221-2.883,3.221-5.084v-5.476c0-1.336-0.49-2.632-1.365-3.659v-7.21
		c0.075-0.799,0.361-5.325-2.912-9.058c-2.844-3.244-7.453-4.897-13.698-4.897c-6.244,0-10.853,1.653-13.697,4.897
		c-3.273,3.732-2.987,8.258-2.912,9.058v7.21c-0.875,1.019-1.365,2.323-1.365,3.659v5.476c0,1.705,0.763,3.288,2.068,4.36
		c1.251,4.902,3.823,8.614,4.781,9.865v4.472c0,1.261-0.693,2.421-1.794,3.026l-12.22,6.66c-0.384,0.21-0.776,0.459-1.16,0.74
		C15.061,71.032,10,60.578,10,48.954L10,48.954z M72.496,80.821c-0.543,0.392-1.095,0.776-1.653,1.139
		c-0.257,0.166-0.512,0.332-0.768,0.498c-0.732,0.452-1.471,0.875-2.232,1.282c-0.166,0.083-0.332,0.166-0.498,0.255
		c-1.744,0.89-3.545,1.661-5.393,2.278c-0.06,0.023-0.129,0.046-0.197,0.068c-0.965,0.324-1.946,0.604-2.941,0.853h-0.008
		c-1.004,0.249-2.014,0.452-3.032,0.626c-0.031,0-0.062,0.008-0.083,0.015c-0.958,0.151-1.931,0.263-2.896,0.353
		c-0.174,0.015-0.348,0.023-0.521,0.039c-0.958,0.068-1.923,0.112-2.889,0.112c-0.981,0-1.954-0.044-2.927-0.12
		c-0.166-0.008-0.338-0.023-0.504-0.039c-0.981-0.083-1.954-0.203-2.919-0.353l-0.127-0.023c-2.045-0.348-4.051-0.844-6.013-1.5
		c-0.06-0.023-0.12-0.046-0.18-0.068c-0.973-0.324-1.931-0.695-2.875-1.103c-0.008,0-0.015,0-0.021-0.008
		c-0.89-0.384-1.767-0.807-2.634-1.259c-0.112-0.06-0.226-0.114-0.34-0.174c-0.792-0.423-1.56-0.875-2.323-1.35
		c-0.226-0.143-0.452-0.286-0.67-0.438c-0.703-0.452-1.396-0.934-2.068-1.44c-0.068-0.052-0.135-0.104-0.203-0.158l0.143-0.083
		l12.218-6.66c2.097-1.147,3.402-3.348,3.402-5.74V62.26l-0.355-0.431c-0.037-0.039-3.371-4.095-4.638-9.602l-0.135-0.61
		l-0.529-0.34c-0.745-0.483-1.191-1.282-1.191-2.149v-5.476c0-0.716,0.309-1.388,0.859-1.894l0.514-0.46V32.7l-0.015-0.203
		c0-0.039-0.46-3.757,2.157-6.737c2.234-2.549,6.065-3.839,11.375-3.839c5.294,0,9.112,1.282,11.344,3.81
		c2.616,2.948,2.188,6.735,2.188,6.766l-0.015,8.809l0.514,0.459c0.55,0.498,0.859,1.17,0.859,1.886v5.476
		c0,1.101-0.755,2.105-1.825,2.437l-0.77,0.234l-0.249,0.768c-0.911,2.829-2.209,5.445-3.854,7.77
		c-0.407,0.572-0.799,1.077-1.139,1.469l-0.377,0.431v5.717c0,2.489,1.381,4.729,3.605,5.845l13.08,6.54
		c0.083,0.037,0.166,0.083,0.249,0.127C72.828,80.588,72.662,80.699,72.496,80.821L72.496,80.821z M72.496,80.821"/>
</g>
</svg>
